<svg xmlns="http://www.w3.org/2000/svg" xmlns:xlink="http://www.w3.org/1999/xlink" preserveAspectRatio="xMidYMid" width="51.548" height="52.477" viewBox="0 0 222 226">
  <defs>
    <style>
      .cls-1 {
        fill: #323232;
      }

      .cls-2 {
        fill: #fff;
        fill-rule: evenodd;
      }
    </style>
  </defs>
  <rect y="-3" width="222" height="231" class="cls-1"/>
  <path d="M146.816,25.998 L146.816,136.716 C146.816,141.030 146.448,145.139 145.717,149.045 C144.984,152.951 143.739,156.777 141.982,160.520 C140.224,164.264 138.027,167.478 135.390,170.163 C132.753,172.849 129.347,175.027 125.173,176.694 C120.998,178.363 116.274,179.196 111.000,179.196 C104.480,179.196 98.823,177.976 94.026,175.534 C89.228,173.093 85.512,169.778 82.875,165.585 C80.239,161.395 78.316,156.899 77.107,152.097 C75.899,147.296 75.295,142.169 75.295,136.716 L75.295,25.998 L46.840,25.998 L46.840,138.059 C46.840,151.975 49.659,164.243 55.300,174.863 C60.939,185.483 68.593,193.582 78.261,199.155 C87.929,204.728 98.841,207.517 111.000,207.517 C123.157,207.517 134.071,204.728 143.739,199.155 C153.407,193.582 161.060,185.483 166.701,174.863 C172.340,164.243 175.160,151.975 175.160,138.059 L175.160,25.998 L146.816,25.998 Z" class="cls-2"/>
</svg>
