<svg xmlns="http://www.w3.org/2000/svg" xmlns:xlink="http://www.w3.org/1999/xlink" preserveAspectRatio="xMidYMid" width="861" height="226" viewBox="0 0 861 226">
  <defs>
    <style>
      .cls-1 {
        fill: #3bc371;
      }

      .cls-2 {
        fill: #fff;
      }

      .cls-2, .cls-3 {
        fill-rule: evenodd;
      }

      .cls-3 {
        fill: #323232;
      }
    </style>
  </defs>
  <rect y="-3" width="222" height="231" class="cls-1"/>
  <path d="M146.816,25.998 L146.816,136.716 C146.816,141.030 146.448,145.139 145.717,149.045 C144.984,152.951 143.739,156.777 141.982,160.520 C140.224,164.264 138.027,167.478 135.390,170.163 C132.753,172.849 129.347,175.027 125.173,176.694 C120.998,178.363 116.274,179.196 111.000,179.196 C104.481,179.196 98.823,177.976 94.026,175.534 C89.228,173.093 85.512,169.778 82.875,165.585 C80.239,161.395 78.316,156.899 77.107,152.097 C75.899,147.296 75.295,142.169 75.295,136.716 L75.295,25.998 L46.840,25.998 L46.840,138.059 C46.840,151.975 49.659,164.243 55.300,174.863 C60.939,185.483 68.593,193.582 78.261,199.155 C87.929,204.728 98.841,207.517 111.000,207.517 C123.157,207.517 134.072,204.728 143.739,199.155 C153.407,193.582 161.060,185.483 166.701,174.863 C172.340,164.243 175.160,151.975 175.160,138.059 L175.160,25.998 L146.816,25.998 Z" class="cls-2"/>
  <path d="M831.337,203.000 L831.337,136.472 C831.337,115.151 824.597,104.489 811.122,104.489 C805.701,104.489 801.015,106.118 797.060,109.372 C793.104,112.628 790.248,116.656 788.490,121.457 C786.732,126.260 785.854,131.427 785.854,136.960 L785.854,203.000 L758.827,203.000 L758.827,83.005 L784.535,83.005 L784.535,102.292 L784.975,102.292 C787.464,95.944 791.767,90.554 797.884,86.118 C803.998,81.683 810.865,79.465 818.483,79.465 C825.221,79.465 831.227,80.829 836.500,83.554 C841.774,86.282 845.949,89.963 849.025,94.602 C852.101,99.240 854.425,104.388 856.001,110.043 C857.575,115.701 858.363,121.701 858.363,128.049 L858.363,203.000 L831.337,203.000 ZM703.830,109.006 C700.240,110.715 697.439,112.811 695.425,115.292 C693.410,117.776 691.745,120.562 690.426,123.654 C689.108,126.748 688.229,129.535 687.790,132.016 C687.350,134.499 687.130,136.758 687.130,138.791 L687.130,203.000 L660.104,203.000 L660.104,83.005 L686.032,83.005 L686.032,103.024 L686.471,103.024 C689.474,95.944 693.758,90.249 699.325,85.935 C704.890,81.622 711.117,79.465 718.002,79.465 C720.565,79.465 722.726,79.709 724.484,80.197 L724.484,107.785 C721.188,106.891 718.404,106.442 716.134,106.442 C711.520,106.442 707.417,107.297 703.830,109.006 ZM586.649,187.741 L585.990,187.741 C583.206,193.112 578.775,197.507 572.697,200.925 C566.617,204.343 559.843,206.052 552.372,206.052 C548.709,206.052 545.083,205.665 541.496,204.892 C537.906,204.118 534.300,202.798 530.674,200.925 C527.049,199.054 523.880,196.734 521.171,193.967 C518.460,191.201 516.244,187.640 514.524,183.286 C512.802,178.933 511.942,174.069 511.942,168.698 C511.942,163.735 512.747,159.238 514.359,155.209 C515.970,151.181 518.095,147.784 520.731,145.017 C523.368,142.251 526.664,139.810 530.619,137.692 C534.574,135.577 538.620,133.929 542.759,132.749 C546.896,131.570 551.565,130.612 556.767,129.880 C561.966,129.147 566.836,128.659 571.378,128.415 C575.919,128.171 580.863,128.049 586.210,128.049 L586.210,124.997 C586.210,117.917 583.865,112.485 579.179,108.701 C574.491,104.917 568.558,103.024 561.381,103.024 C555.888,103.024 550.504,104.306 545.231,106.870 C539.958,109.433 535.525,112.710 531.937,116.696 L517.985,98.508 C523.990,92.404 531.004,87.705 539.024,84.409 C547.044,81.113 555.265,79.465 563.688,79.465 C571.159,79.465 577.768,80.462 583.518,82.456 C589.267,84.451 593.882,87.054 597.361,90.268 C600.839,93.484 603.695,97.348 605.930,101.865 C608.164,106.381 609.702,110.919 610.545,115.476 C611.386,120.034 611.808,124.875 611.808,130.002 L611.808,203.000 L586.649,203.000 L586.649,187.741 ZM586.210,148.190 L580.058,148.190 C552.664,148.190 538.969,154.864 538.969,168.210 C538.969,173.501 540.781,177.325 544.407,179.685 C548.032,182.046 552.518,183.225 557.865,183.225 C566.946,183.225 573.941,180.499 578.849,175.046 C583.755,169.595 586.210,162.066 586.210,152.463 L586.210,148.190 ZM395.641,152.463 C396.153,160.846 399.413,167.865 405.419,173.520 C411.424,179.177 418.419,182.004 426.403,182.004 C438.927,182.004 448.485,176.837 455.077,166.501 L472.985,182.492 C462.438,198.525 446.983,206.540 426.623,206.540 C409.630,206.540 395.713,200.864 384.875,189.511 C374.034,178.159 368.615,162.921 368.615,143.796 C368.615,124.673 373.998,109.170 384.765,97.287 C395.531,85.406 409.190,79.465 425.744,79.465 C441.344,79.465 453.941,85.080 463.537,96.311 C473.131,107.541 477.929,123.614 477.929,144.528 C477.929,147.946 477.855,150.592 477.709,152.463 L395.641,152.463 ZM444.530,110.288 C440.208,104.794 433.874,102.048 425.524,102.048 C417.540,102.048 410.692,104.794 404.979,110.288 C399.267,115.781 396.153,122.678 395.641,130.979 L451.012,130.979 C451.012,122.678 448.851,115.781 444.530,110.288 ZM248.578,25.998 L276.923,25.998 L276.923,175.046 L344.599,175.046 L344.599,203.000 L248.578,203.000 L248.578,25.998 Z" class="cls-3"/>
</svg>
