<svg width="73" height="27" viewBox="0 0 73 27" fill="none" xmlns="http://www.w3.org/2000/svg">
<path d="M11.1621 26.002C10.752 26.002 10.377 25.9375 10.0371 25.8086C9.70898 25.6797 9.41602 25.498 9.1582 25.2637C8.91211 25.041 8.70703 24.7773 8.54297 24.4727C8.37891 24.1562 8.26758 23.8164 8.20898 23.4531C7.77539 24.2148 7.26562 24.8359 6.67969 25.3164C6.09375 25.7969 5.40234 26.0371 4.60547 26.0371C4.00781 26.0371 3.46875 25.9141 2.98828 25.668C2.51953 25.4219 2.12109 25.0762 1.79297 24.6309C1.46484 24.1738 1.21289 23.6289 1.03711 22.9961C0.873047 22.3516 0.791016 21.6367 0.791016 20.8516C0.791016 19.9023 0.855469 18.9473 0.984375 17.9863C1.125 17.0254 1.27734 16.1582 1.44141 15.3848C1.62891 14.4824 1.8457 13.6094 2.0918 12.7656C2.15039 12.6133 2.19141 12.4609 2.21484 12.3086C2.25 12.1445 2.32031 11.998 2.42578 11.8691C2.53125 11.7402 2.69531 11.6348 2.91797 11.5527C3.15234 11.4707 3.50977 11.4297 3.99023 11.4297C4.43555 11.4297 4.72266 11.5117 4.85156 11.6758C4.98047 11.8281 5.02734 12.0098 4.99219 12.2207C4.96875 12.4316 4.89844 12.6484 4.78125 12.8711C4.67578 13.0938 4.60547 13.2754 4.57031 13.416C4.40625 14.084 4.25977 14.6934 4.13086 15.2441C4.00195 15.7949 3.89062 16.3516 3.79688 16.9141C3.71484 17.4648 3.65039 18.0449 3.60352 18.6543C3.55664 19.252 3.5332 19.9258 3.5332 20.6758C3.5332 21.6602 3.67383 22.4043 3.95508 22.9082C4.24805 23.4121 4.6582 23.6641 5.18555 23.6641C5.54883 23.6641 5.88281 23.5293 6.1875 23.2598C6.50391 22.9902 6.78516 22.6328 7.03125 22.1875C7.28906 21.7305 7.51172 21.2148 7.69922 20.6406C7.88672 20.0547 8.0332 19.4453 8.13867 18.8125V13.0117C8.13867 12.7539 8.11523 12.5488 8.06836 12.3965C8.0332 12.2441 7.99219 12.127 7.94531 12.0449C7.91016 11.9512 7.86914 11.8809 7.82227 11.834C7.78711 11.7754 7.76953 11.7109 7.76953 11.6406C7.76953 11.582 7.80469 11.5293 7.875 11.4824C7.94531 11.4355 8.03906 11.3945 8.15625 11.3594C8.27344 11.3242 8.39648 11.3008 8.52539 11.2891C8.66602 11.2656 8.80078 11.2539 8.92969 11.2539C9.52734 11.2539 9.99609 11.4121 10.3359 11.7285C10.6875 12.0332 10.8633 12.4023 10.8633 12.8359V21.9766C10.8633 22.0586 10.8691 22.1934 10.8809 22.3809C10.8926 22.5566 10.9277 22.7383 10.9863 22.9258C11.0449 23.1133 11.1387 23.2773 11.2676 23.418C11.3965 23.5586 11.5781 23.6289 11.8125 23.6289C12.1758 23.6289 12.4863 23.5 12.7441 23.2422C13.0137 22.9844 13.2422 22.6621 13.4297 22.2754C13.6289 21.8887 13.7871 21.4727 13.9043 21.0273C14.0332 20.5703 14.1387 20.1426 14.2207 19.7441C14.291 19.3691 14.4082 19.0996 14.5723 18.9355C14.7363 18.7598 14.9062 18.6719 15.082 18.6719C15.2227 18.6719 15.3691 18.7188 15.5215 18.8125C15.6738 18.8945 15.8086 19.0059 15.9258 19.1465C16.0547 19.2871 16.1543 19.4453 16.2246 19.6211C16.3066 19.7969 16.3477 19.9727 16.3477 20.1484C16.3477 20.1719 16.3477 20.2012 16.3477 20.2363C16.3477 20.2715 16.3359 20.3242 16.3125 20.3945C16.1484 20.9922 15.9316 21.6191 15.6621 22.2754C15.4043 22.9316 15.0703 23.5352 14.6602 24.0859C14.25 24.6367 13.7578 25.0938 13.1836 25.457C12.6094 25.8203 11.9355 26.002 11.1621 26.002ZM17.1035 14.3477C17.2324 14.1016 17.3555 13.7734 17.4727 13.3633C17.6016 12.9414 17.7188 12.4785 17.8242 11.9746C17.9414 11.4707 18.0469 10.9434 18.1406 10.3926C18.2344 9.8418 18.3164 9.30273 18.3867 8.77539C18.457 8.24805 18.5098 7.75586 18.5449 7.29883C18.5918 6.83008 18.6152 6.43164 18.6152 6.10352C18.6152 4.9082 18.5273 4.03516 18.3516 3.48438C18.1758 2.92188 17.9414 2.64062 17.6484 2.64062C17.5547 2.64062 17.4727 2.6875 17.4023 2.78125C17.332 2.875 17.2734 2.99805 17.2266 3.15039C17.1797 3.29102 17.1445 3.44922 17.1211 3.625C17.1094 3.78906 17.1035 3.94141 17.1035 4.08203V14.3477ZM22.2188 19.7793C22.2891 19.4277 22.3945 19.1758 22.5352 19.0234C22.6875 18.8594 22.8457 18.7715 23.0098 18.7598C23.1855 18.7363 23.3613 18.7773 23.5371 18.8828C23.7129 18.9766 23.8652 19.1055 23.9941 19.2695C24.123 19.4336 24.2168 19.6211 24.2754 19.832C24.3457 20.0312 24.3574 20.2305 24.3105 20.4297C24.1465 20.9102 23.9121 21.4727 23.6074 22.1172C23.3027 22.7617 22.916 23.3711 22.4473 23.9453C21.9785 24.5195 21.4277 25.0059 20.7949 25.4043C20.1621 25.8027 19.4355 26.002 18.6152 26.002C17.9238 26.002 17.3145 25.8848 16.7871 25.6504C16.2598 25.4277 15.8145 25.1113 15.4512 24.7012C15.0996 24.2793 14.8301 23.7812 14.6426 23.207C14.4668 22.6211 14.3789 21.9707 14.3789 21.2559V4.87305C14.3789 4.20508 14.4609 3.58984 14.625 3.02734C14.8008 2.45312 15.0352 1.9668 15.3281 1.56836C15.6328 1.1582 15.9844 0.841797 16.3828 0.619141C16.7812 0.384766 17.2031 0.267578 17.6484 0.267578C18.1758 0.267578 18.6211 0.367188 18.9844 0.566406C19.3477 0.753906 19.6465 1.00586 19.8809 1.32227C20.1152 1.63867 20.2969 2.00195 20.4258 2.41211C20.5664 2.82227 20.666 3.24414 20.7246 3.67773C20.7832 4.09961 20.8184 4.52148 20.8301 4.94336C20.8418 5.35352 20.8477 5.72852 20.8477 6.06836C20.8477 6.94727 20.7656 7.87305 20.6016 8.8457C20.4375 9.80664 20.2266 10.7559 19.9688 11.6934C19.7227 12.6309 19.4473 13.5332 19.1426 14.4004C18.8496 15.2559 18.5625 16.0176 18.2812 16.6855C18.0117 17.3535 17.7656 17.8984 17.543 18.3203C17.332 18.7422 17.1855 18.9883 17.1035 19.0586V21.1504C17.1035 21.877 17.2559 22.4746 17.5605 22.9434C17.8652 23.4004 18.3516 23.6289 19.0195 23.6289C19.4297 23.6289 19.8105 23.5059 20.1621 23.2598C20.5254 23.002 20.8418 22.6855 21.1113 22.3105C21.3926 21.9238 21.627 21.5078 21.8145 21.0625C22.002 20.6055 22.1367 20.1777 22.2188 19.7793ZM30.6035 14.5234C30.6035 15.1914 30.4863 15.877 30.252 16.5801C30.0293 17.2832 29.6895 17.9512 29.2324 18.584C28.7871 19.2051 28.2305 19.7676 27.5625 20.2715C26.9062 20.7637 26.1445 21.1387 25.2773 21.3965C25.3945 21.7012 25.5469 21.9941 25.7344 22.2754C25.9336 22.5449 26.168 22.7793 26.4375 22.9785C26.707 23.1777 27.0176 23.3359 27.3691 23.4531C27.7324 23.5703 28.1484 23.6289 28.6172 23.6289C29.3203 23.6289 29.9238 23.5 30.4277 23.2422C30.9316 22.9727 31.3535 22.6211 31.6934 22.1875C32.0449 21.7539 32.3262 21.2676 32.5371 20.7285C32.748 20.1895 32.9062 19.6445 33.0117 19.0938C33.0938 18.6953 33.2578 18.4316 33.5039 18.3027C33.7617 18.1621 34.0195 18.127 34.2773 18.1973C34.5469 18.2676 34.7754 18.4199 34.9629 18.6543C35.1621 18.877 35.2441 19.1465 35.209 19.4629C35.1621 19.8262 35.0801 20.2422 34.9629 20.7109C34.8574 21.1797 34.6934 21.6543 34.4707 22.1348C34.248 22.6152 33.9609 23.0898 33.6094 23.5586C33.2695 24.0156 32.8477 24.4258 32.3438 24.7891C31.8398 25.1523 31.248 25.4453 30.5684 25.668C29.8887 25.8906 29.1094 26.002 28.2305 26.002C27.4102 26.002 26.6133 25.8379 25.8398 25.5098C25.0781 25.1934 24.3984 24.7363 23.8008 24.1387C23.2148 23.5293 22.7402 22.7852 22.377 21.9062C22.0254 21.0156 21.8496 20.0078 21.8496 18.8828C21.8496 17.7461 22.0078 16.6914 22.3242 15.7188C22.6406 14.7344 23.0566 13.8848 23.5723 13.1699C24.0879 12.4551 24.6738 11.8984 25.3301 11.5C25.9863 11.0898 26.6602 10.8848 27.3516 10.8848C27.8555 10.8848 28.3066 10.9727 28.7051 11.1484C29.1152 11.3242 29.4609 11.5762 29.7422 11.9043C30.0234 12.2207 30.2344 12.6016 30.375 13.0469C30.5273 13.4922 30.6035 13.9844 30.6035 14.5234ZM24.8027 18.7773C24.8027 18.8828 24.8086 18.9883 24.8203 19.0938C24.832 19.1992 24.8379 19.3105 24.8379 19.4277C25.2832 19.2168 25.6875 18.9473 26.0508 18.6191C26.4141 18.291 26.7246 17.916 26.9824 17.4941C27.2402 17.0723 27.4395 16.6152 27.5801 16.123C27.7207 15.6191 27.791 15.0977 27.791 14.5586C27.791 14.1602 27.7207 13.8496 27.5801 13.627C27.4512 13.4043 27.2695 13.293 27.0352 13.293C26.7422 13.293 26.4785 13.3926 26.2441 13.5918C26.0215 13.791 25.8223 14.0547 25.6465 14.3828C25.4824 14.6992 25.3418 15.0625 25.2246 15.4727C25.1191 15.8711 25.0312 16.2754 24.9609 16.6855C24.8906 17.0957 24.8438 17.4883 24.8203 17.8633C24.7969 18.2266 24.791 18.5312 24.8027 18.7773ZM43.1895 23.6289C43.5527 23.6289 43.8633 23.5 44.1211 23.2422C44.3906 22.9844 44.6191 22.6621 44.8066 22.2754C45.0059 21.8887 45.1641 21.4727 45.2812 21.0273C45.4102 20.5703 45.5156 20.1426 45.5977 19.7441C45.6797 19.3691 45.7969 19.0996 45.9492 18.9355C46.1133 18.7598 46.2891 18.6719 46.4766 18.6719C46.6172 18.6719 46.7578 18.7188 46.8984 18.8125C47.0508 18.8945 47.1855 19.0059 47.3027 19.1465C47.4316 19.2871 47.5312 19.4453 47.6016 19.6211C47.6836 19.7969 47.7246 19.9727 47.7246 20.1484C47.7246 20.1719 47.7246 20.2012 47.7246 20.2363C47.7246 20.2715 47.7129 20.3242 47.6895 20.3945C47.5371 20.9922 47.3262 21.6191 47.0566 22.2754C46.7988 22.9316 46.4648 23.5352 46.0547 24.0859C45.6445 24.6367 45.1465 25.0938 44.5605 25.457C43.9863 25.8203 43.3125 26.002 42.5391 26.002C41.9062 26.002 41.3555 25.8672 40.8867 25.5977C40.418 25.3281 40.0488 24.9707 39.7793 24.5254C39.416 24.9355 38.9766 25.2812 38.4609 25.5625C37.957 25.8555 37.3652 26.002 36.6855 26.002C35.9824 26.002 35.3613 25.8613 34.8223 25.5801C34.2949 25.2988 33.8496 24.918 33.4863 24.4375C33.123 23.9453 32.8477 23.3711 32.6602 22.7148C32.4844 22.0469 32.3965 21.332 32.3965 20.5703C32.3965 19.0703 32.6367 17.7227 33.1172 16.5273C33.5977 15.332 34.2363 14.3184 35.0332 13.4863C35.8301 12.6426 36.7383 11.998 37.7578 11.5527C38.7891 11.1074 39.8555 10.8848 40.957 10.8848C41.4492 10.8848 41.8477 11.0195 42.1523 11.2891C42.457 11.5586 42.6094 11.9277 42.6094 12.3965C42.6094 12.7012 42.5742 12.918 42.5039 13.0469C42.4453 13.1641 42.3281 13.2227 42.1523 13.2227C41.9883 13.2227 41.8184 13.2109 41.6426 13.1875C41.4668 13.1641 41.2852 13.1523 41.0977 13.1523C40.418 13.1523 39.7266 13.3047 39.0234 13.6094C38.3203 13.9023 37.6816 14.3594 37.1074 14.9805C36.5449 15.5898 36.082 16.3691 35.7188 17.3184C35.3555 18.2559 35.1738 19.375 35.1738 20.6758C35.1738 21.625 35.3555 22.3574 35.7188 22.873C36.082 23.377 36.5801 23.6289 37.2129 23.6289C37.7051 23.6289 38.1152 23.4473 38.4434 23.084C38.7715 22.709 39.0352 22.2695 39.2344 21.7656V16.2109C39.2344 16.0352 39.2227 15.8887 39.1992 15.7715C39.1875 15.6543 39.1699 15.5547 39.1465 15.4727C39.1348 15.3906 39.123 15.3203 39.1113 15.2617C39.0996 15.1914 39.0938 15.127 39.0938 15.0684C39.0938 14.8809 39.1816 14.7344 39.3574 14.6289C39.5449 14.5117 39.7676 14.4531 40.0254 14.4531C40.623 14.4531 41.0977 14.6113 41.4492 14.9277C41.8008 15.2324 41.9766 15.6016 41.9766 16.0352V21.9766C41.9766 22.1758 42 22.375 42.0469 22.5742C42.0938 22.7617 42.1641 22.9375 42.2578 23.1016C42.3516 23.2539 42.4746 23.3828 42.627 23.4883C42.791 23.582 42.9785 23.6289 43.1895 23.6289ZM53.6133 26.002C53.1914 26.002 52.7578 25.9375 52.3125 25.8086C51.8789 25.6797 51.4805 25.457 51.1172 25.1406C50.7656 24.8242 50.4727 24.4082 50.2383 23.8926C50.0156 23.3652 49.9043 22.7031 49.9043 21.9062C49.9043 20.7461 50.0566 19.5215 50.3613 18.2324C50.6777 16.9316 51.1289 15.502 51.7148 13.9434H48.9727H48.5684C48.5566 14.2949 48.5332 14.7402 48.498 15.2793C48.4746 15.8184 48.4277 16.3926 48.3574 17.002C48.2871 17.6113 48.1934 18.2266 48.0762 18.8477C47.9707 19.4688 47.8359 20.043 47.6719 20.5703C47.5547 20.9453 47.3672 21.1621 47.1094 21.2207C46.8633 21.2793 46.6172 21.2383 46.3711 21.0977C46.125 20.9453 45.9258 20.7285 45.7734 20.4473C45.6211 20.166 45.5859 19.873 45.668 19.5684C45.7617 19.2051 45.8438 18.7656 45.9141 18.25C45.9844 17.7227 46.0371 17.1719 46.0723 16.5977C46.1191 16.0117 46.1543 15.4316 46.1777 14.8574C46.2012 14.2715 46.2188 13.75 46.2305 13.293C45.7852 13.0469 45.416 12.7363 45.123 12.3613C44.8301 11.9746 44.6836 11.5176 44.6836 10.9902C44.6836 10.7441 44.7305 10.5215 44.8242 10.3223C44.9297 10.1113 45.0645 9.93555 45.2285 9.79492C45.3926 9.64258 45.5859 9.53125 45.8086 9.46094C46.0312 9.37891 46.2598 9.33789 46.4941 9.33789C46.7051 9.33789 46.9219 9.36719 47.1445 9.42578C47.3789 9.48438 47.5957 9.58984 47.7949 9.74219C48.0059 9.89453 48.1934 10.0938 48.3574 10.3398C48.5215 10.5859 48.6562 10.8906 48.7617 11.2539C49.0547 11.2891 49.3008 11.3184 49.5 11.3418C49.7109 11.3535 49.8867 11.3652 50.0273 11.377C50.168 11.3887 50.2852 11.3945 50.3789 11.3945C50.4727 11.3945 50.5664 11.3945 50.6602 11.3945H52.541C52.6465 11.3945 52.7988 11.459 52.998 11.5879C53.209 11.7168 53.4141 11.8867 53.6133 12.0977C53.8125 12.2969 53.9766 12.5137 54.1055 12.748C54.2461 12.9824 54.2988 13.2051 54.2637 13.416C54.2637 13.4863 54.2227 13.6562 54.1406 13.9258C54.0586 14.1953 53.959 14.5352 53.8418 14.9453C53.7246 15.3555 53.5957 15.8301 53.4551 16.3691C53.3145 16.8965 53.1855 17.4531 53.0684 18.0391C52.9512 18.625 52.8516 19.2344 52.7695 19.8672C52.6875 20.4883 52.6465 21.0977 52.6465 21.6953C52.6465 21.9414 52.6758 22.1816 52.7344 22.416C52.793 22.6504 52.8809 22.8613 52.998 23.0488C53.1152 23.2246 53.2617 23.3652 53.4375 23.4707C53.625 23.5762 53.8418 23.6289 54.0879 23.6289C54.498 23.6289 54.8496 23.5 55.1426 23.2422C55.4355 22.9844 55.6816 22.6621 55.8809 22.2754C56.0801 21.8887 56.2383 21.4727 56.3555 21.0273C56.4844 20.5703 56.5898 20.1426 56.6719 19.7441C56.7422 19.3691 56.8594 19.0996 57.0234 18.9355C57.1875 18.7598 57.3574 18.6719 57.5332 18.6719C57.6738 18.6719 57.8203 18.7188 57.9727 18.8125C58.125 18.8945 58.2598 19.0059 58.377 19.1465C58.5059 19.2871 58.6055 19.4453 58.6758 19.6211C58.7578 19.7969 58.7988 19.9727 58.7988 20.1484C58.7988 20.207 58.793 20.2539 58.7812 20.2891C58.7695 20.3242 58.7637 20.3594 58.7637 20.3945C58.5996 20.9922 58.3828 21.6191 58.1133 22.2754C57.8555 22.9316 57.5215 23.5352 57.1113 24.0859C56.7012 24.6367 56.209 25.0938 55.6348 25.457C55.0605 25.8203 54.3867 26.002 53.6133 26.002ZM56.8477 13.0117C56.8477 12.6719 56.8184 12.4258 56.7598 12.2734C56.7129 12.1211 56.6895 11.9805 56.6895 11.8516C56.6895 11.6758 56.7832 11.5352 56.9707 11.4297C57.1582 11.3125 57.3809 11.2539 57.6387 11.2539C58.2363 11.2539 58.7051 11.4121 59.0449 11.7285C59.3965 12.0332 59.5723 12.4023 59.5723 12.8359V14.4531C59.8184 13.9492 60.082 13.4805 60.3633 13.0469C60.6562 12.6133 60.9668 12.2383 61.2949 11.9219C61.6348 11.5938 61.9922 11.3418 62.3672 11.166C62.7539 10.9785 63.1699 10.8848 63.6152 10.8848C64.2129 10.8848 64.7051 10.9961 65.0918 11.2188C65.4785 11.4414 65.7832 11.7285 66.0059 12.0801C66.2285 12.4316 66.3809 12.8242 66.4629 13.2578C66.5566 13.6914 66.6035 14.1133 66.6035 14.5234V21.9766C66.6035 22.0586 66.6094 22.1934 66.6211 22.3809C66.6328 22.5566 66.668 22.7383 66.7266 22.9258C66.7852 23.1133 66.873 23.2773 66.9902 23.418C67.1191 23.5586 67.3008 23.6289 67.5352 23.6289C67.8984 23.6289 68.209 23.5 68.4668 23.2422C68.7363 22.9844 68.9648 22.6621 69.1523 22.2754C69.3516 21.8887 69.5098 21.4727 69.627 21.0273C69.7559 20.5703 69.8613 20.1426 69.9434 19.7441C70.0137 19.3691 70.1309 19.0996 70.2949 18.9355C70.459 18.7598 70.6289 18.6719 70.8047 18.6719C70.9453 18.6719 71.0918 18.7188 71.2441 18.8125C71.3965 18.8945 71.5312 19.0059 71.6484 19.1465C71.7773 19.2871 71.877 19.4453 71.9473 19.6211C72.0293 19.7969 72.0703 19.9727 72.0703 20.1484C72.0703 20.1719 72.0703 20.2012 72.0703 20.2363C72.0703 20.2715 72.0586 20.3242 72.0352 20.3945C71.8828 20.9922 71.6719 21.6191 71.4023 22.2754C71.1445 22.9316 70.8047 23.5352 70.3828 24.0859C69.9727 24.6367 69.4805 25.0938 68.9062 25.457C68.332 25.8203 67.6582 26.002 66.8848 26.002C66.4043 26.002 65.9766 25.9082 65.6016 25.7207C65.2383 25.5449 64.9219 25.3047 64.6523 25C64.3945 24.6953 64.1953 24.3379 64.0547 23.9277C63.9258 23.5176 63.8613 23.084 63.8613 22.627V15.3145C63.8613 15.0332 63.8555 14.7695 63.8438 14.5234C63.832 14.2773 63.7969 14.0605 63.7383 13.873C63.6914 13.6855 63.6152 13.5391 63.5098 13.4336C63.416 13.3164 63.2812 13.2578 63.1055 13.2578C62.8477 13.2578 62.5312 13.4336 62.1562 13.7852C61.7812 14.1367 61.4121 14.5938 61.0488 15.1562C60.6855 15.7188 60.3633 16.3574 60.082 17.0723C59.8125 17.7754 59.6426 18.4844 59.5723 19.1992V24.4551C59.5723 24.6309 59.5664 24.8125 59.5547 25C59.5547 25.1758 59.5195 25.334 59.4492 25.4746C59.3906 25.627 59.291 25.75 59.1504 25.8438C59.0215 25.9492 58.8281 26.002 58.5703 26.002C58.3945 26.002 58.2012 25.9785 57.9902 25.9316C57.791 25.8965 57.6035 25.8203 57.4277 25.7031C57.2637 25.5977 57.123 25.4395 57.0059 25.2285C56.9004 25.0293 56.8477 24.7598 56.8477 24.4199V13.0117Z" fill="#004AAD"/>
</svg>
