<?xml version="1.0" standalone="no"?>
<!DOCTYPE svg PUBLIC "-//W3C//DTD SVG 20010904//EN"
 "http://www.w3.org/TR/2001/REC-SVG-20010904/DTD/svg10.dtd">
<svg version="1.0" xmlns="http://www.w3.org/2000/svg"
 width="700.000000pt" height="700.000000pt" viewBox="0 0 700.000000 700.000000"
 preserveAspectRatio="xMidYMid meet">
<metadata>
Created by potrace 1.11, written by Peter Selinger 2001-2013
</metadata>
<g transform="translate(0.000000,700.000000) scale(0.100000,-0.100000)"
fill="#000000" stroke="none">
<path d="M0 3500 l0 -3500 3500 0 3500 0 0 3500 0 3500 -3500 0 -3500 0 0
-3500z m2370 983 c0 -1048 4 -1772 10 -1857 24 -324 119 -606 275 -812 148
-194 383 -318 670 -353 454 -55 857 103 1066 419 95 144 172 342 211 541 l22
114 3 1833 4 1832 445 0 444 0 -3 -1887 c-2 -1759 -4 -1895 -20 -1993 -45
-261 -104 -454 -202 -656 -247 -511 -656 -855 -1200 -1013 -218 -63 -510 -91
-752 -72 -310 24 -513 77 -768 201 -162 79 -254 138 -390 252 -299 250 -538
653 -639 1078 -64 270 -60 128 -63 2203 l-3 1887 445 0 445 0 0 -1717z"/>
</g>
</svg>
